<svg xmlns="http://www.w3.org/2000/svg" viewBox="0 0 72 72" role="img" aria-labelledby="logoTitle logoDesc">
  <title id="logoTitle">Guia da Profissionalizacao</title>
  <desc id="logoDesc">Simbolo de documento profissional com sinal de aprovacao e destaque de crescimento.</desc>
  <defs>
    <linearGradient id="logoBase" x1="10" y1="10" x2="62" y2="62" gradientUnits="userSpaceOnUse">
      <stop offset="0" stop-color="#1f4ed8" />
      <stop offset="1" stop-color="#12b8d9" />
    </linearGradient>
    <linearGradient id="logoAccent" x1="46" y1="12" x2="58" y2="26" gradientUnits="userSpaceOnUse">
      <stop offset="0" stop-color="#34d399" />
      <stop offset="1" stop-color="#38bdf8" />
    </linearGradient>
  </defs>
  <rect x="6" y="6" width="60" height="60" rx="20" fill="url(#logoBase)" />
  <path d="M24 18h18l10 10v18a8 8 0 0 1-8 8H24a8 8 0 0 1-8-8V26a8 8 0 0 1 8-8Z" fill="rgba(255,255,255,0.18)" stroke="rgba(255,255,255,0.58)" stroke-width="2" />
  <path d="M42 18v10h10" fill="none" stroke="rgba(255,255,255,0.72)" stroke-width="2" stroke-linecap="round" stroke-linejoin="round" />
  <path d="M23 24h13M23 30h9" fill="none" stroke="rgba(255,255,255,0.82)" stroke-width="2.4" stroke-linecap="round" />
  <path d="M26 38l7 7 14-15" fill="none" stroke="#ffffff" stroke-width="4.2" stroke-linecap="round" stroke-linejoin="round" />
  <circle cx="52" cy="20" r="7" fill="url(#logoAccent)" />
  <path d="M49.6 20H54.4M52 17.6v4.8" fill="none" stroke="#ffffff" stroke-width="2.1" stroke-linecap="round" />
</svg>
